<svg width="512" height="512" version="1.1" viewBox="0 0 135.47 135.47" xmlns="http://www.w3.org/2000/svg" xmlns:xlink="http://www.w3.org/1999/xlink"><defs><linearGradient id="a"><stop stop-color="#6717cd" offset=".05"/><stop stop-color="#2871fa" offset=".95"/></linearGradient><linearGradient id="c" x1="179.02" x2="34.265" y1="157.06" y2="59.418" gradientTransform="translate(-9.304 -10.456)scale(.72238)" gradientUnits="userSpaceOnUse" xlink:href="#a"/><linearGradient id="d" x1="106.64" x2="106.64" y1="20.934" y2="195.54" gradientTransform="translate(-9.304 -10.456)scale(.72238)" gradientUnits="userSpaceOnUse" xlink:href="#a"/></defs><path d="m41.23 11.727c-6.498 1.015-9.256 5.61-12.283 10.846l-7.811 13.563-10.436 18.094c-2.187 3.792-5.167 7.761-5.614 12.232-0.589 5.89 3.432 10.972 6.22 15.8l14.271 24.72c2.42 4.19 4.586 9.529 8.03 12.973 4.64 4.64 11.064 4.1362 17.052 4.1247l29.052-0.0558c4.7-9e-3 9.882 0.39001 14.526-0.33499 6.843-1.069 9.68-6.38 12.85-11.866l7.066-12.232 11.028-19.113c2.076-3.6 4.775-7.217 5.2-11.468 0.588-5.889-3.432-10.971-6.22-15.8l-14.27-24.72c-2.39-4.139-4.467-9.258-7.777-12.738-4.588-4.823-10.998-4.4702-17.052-4.4702h-29.051c-4.782 0-10.057-0.29251-14.781 0.44549" fill="url(#c)" stroke="url(#d)" stroke-width="1.5871"/><path d="m76.89 41.817-16.922 39.3-29.222-11.247v-1.039l20.23-7.181v-8.251l-29.858 11.857v8.19l35.851 14.635-3.764 8.743h8.404l16.806-39.034 28.36 11.041v1.04l-20.077 7.12v8.25l29.764-11.795v-8.19l-35.06-14.404 3.89-9.035z" fill-opacity=".25294"/><path d="m75.832 40.23-16.922 39.3-29.222-11.247v-1.039l20.23-7.181v-8.251l-29.858 11.857v8.19l35.851 14.635-3.764 8.743h8.404l16.806-39.034 28.36 11.041v1.04l-20.077 7.12v8.25l29.764-11.795v-8.19l-35.06-14.404 3.89-9.035z" fill="#fff" style="mix-blend-mode:normal;paint-order:stroke fill markers"/></svg>