<svg xmlns="http://www.w3.org/2000/svg" xmlns:xlink="http://www.w3.org/1999/xlink" width="512" height="512" viewBox="0 0 135.467 135.467"><defs><linearGradient id="a"><stop offset=".05" style="stop-color:#6717cd;stop-opacity:1"/><stop offset=".95" style="stop-color:#2871fa;stop-opacity:1"/></linearGradient><linearGradient xlink:href="#a" id="c" x1="179.022" x2="34.265" y1="157.058" y2="59.418" gradientTransform="translate(-9.304 -10.456)scale(.72238)" gradientUnits="userSpaceOnUse"/><linearGradient xlink:href="#a" id="d" x1="106.643" x2="106.643" y1="20.934" y2="195.543" gradientTransform="translate(-9.304 -10.456)scale(.72238)" gradientUnits="userSpaceOnUse"/></defs><path d="M41.23 11.783c-6.498 1.015-9.256 5.61-12.283 10.846l-7.811 13.507L10.7 54.23c-2.187 3.792-5.167 7.761-5.614 12.232-.589 5.89 3.432 10.972 6.22 15.8l14.271 24.72c2.42 4.19 4.586 9.529 8.03 12.973 4.64 4.64 11.064 3.846 17.052 3.846h29.052c4.7 0 9.882.613 14.526-.112 6.843-1.069 9.68-6.38 12.85-11.866l7.066-12.232 11.028-19.113c2.076-3.6 4.775-7.217 5.2-11.468.588-5.889-3.432-10.971-6.22-15.8l-14.27-24.72c-2.39-4.139-4.467-9.258-7.777-12.738-4.588-4.823-10.998-4.08-17.052-4.08H56.011c-4.782 0-10.057-.627-14.781.111" style="fill:url(#c);stroke:url(#d);stroke-width:1.58709;stroke-dasharray:none;stroke-opacity:1"/><path d="M75.832 40.23 58.91 79.53 29.688 68.283v-1.039l20.23-7.181v-8.251L20.06 63.669v8.19l35.851 14.635-3.764 8.743h8.404l16.806-39.034 28.36 11.041v1.04l-20.077 7.12v8.25l29.764-11.795v-8.19l-35.06-14.404 3.89-9.035z" fill="#fff"/></svg>